<svg xmlns="http://www.w3.org/2000/svg" viewBox="0 0 400 400"><defs><style>.cls-1{fill:#ff0;}.cls-2{fill:#fff;}</style></defs><g id="Capa_1" data-name="Capa 1"><circle class="cls-1" cx="201.5" cy="197.5" r="173"/><path d="M201.5,29A168.5,168.5,0,0,1,320.65,316.65,168.5,168.5,0,0,1,82.35,78.35,167.43,167.43,0,0,1,201.5,29m0-9A177.5,177.5,0,1,0,379,197.5,177.5,177.5,0,0,0,201.5,20Z"/></g><g id="Capa_2" data-name="Capa 2"><ellipse class="cls-2" cx="146.5" cy="141.5" rx="33" ry="43"/><path d="M146.5,103c7.2,0,14.11,3.73,19.45,10.49,5.84,7.39,9.05,17.34,9.05,28s-3.21,20.62-9.05,28C160.61,176.27,153.7,180,146.5,180s-14.11-3.73-19.45-10.49c-5.84-7.39-9-17.34-9-28s3.21-20.62,9-28C132.39,106.73,139.3,103,146.5,103m0-9c-20.71,0-37.5,21.27-37.5,47.5S125.79,189,146.5,189,184,167.73,184,141.5,167.21,94,146.5,94Z"/></g><g id="Capa_3" data-name="Capa 3"><path class="cls-2" d="M252.5,184.5c-18.2,0-33-19.29-33-43s14.8-43,33-43,33,19.29,33,43S270.7,184.5,252.5,184.5Z"/><path d="M252.5,103c7.2,0,14.11,3.73,19.45,10.49,5.84,7.39,9.05,17.34,9.05,28s-3.21,20.62-9.05,28C266.61,176.27,259.7,180,252.5,180s-14.11-3.73-19.45-10.49c-5.84-7.39-9.05-17.34-9.05-28s3.21-20.62,9.05-28C238.39,106.73,245.3,103,252.5,103m0-9c-20.71,0-37.5,21.27-37.5,47.5S231.79,189,252.5,189,290,167.73,290,141.5,273.21,94,252.5,94Z"/></g><g id="Capa_4" data-name="Capa 4"><path d="M108.86,263.52H290.44a6,6,0,1,0,0-12H108.86a6,6,0,0,0,0,12Z"/></g></svg>